<?xml version="1.0" standalone="no"?><!DOCTYPE svg PUBLIC "-//W3C//DTD SVG 1.1//EN" "http://www.w3.org/Graphics/SVG/1.1/DTD/svg11.dtd"><svg t="1727512658989" class="icon" viewBox="0 0 1024 1024" version="1.1" xmlns="http://www.w3.org/2000/svg" p-id="4328" xmlns:xlink="http://www.w3.org/1999/xlink" width="200" height="200"><path d="M767.872 384 767.872 256C767.872 79.264 640 0 512 0L255.872 0C128 0 0 68 0 256c0 184 128 256 255.872 256l29.76 0C267.776 546.656 256.352 587.84 256 637.824l0 132.672C257.344 910.688 371.456 1024 512 1024c0-70.752 57.376-128 128-128l127.872 0C896 896 1024 824 1024 640 1024 452 896 384 767.872 384zM255.872 384C128 384 128 287.616 128 256c0-38.368 0-128 127.872-128L512 128c47.872 0 128 16.64 128 128l0 128c0 41.824-20.128 79.072-51.488 102.432C541.76 424.256 467.488 384 384 384L255.872 384zM767.872 768 640 768c-83.616 0-158.016 40.256-204.736 102.368C404.128 847.008 384 809.76 384 768l0-128c0-58.56 29.12-94.112 58.112-112.384C483.136 548.992 512 590.624 512 640c94.592 0 176.192-51.84 220.608-128.064L767.872 512C896 512 896 601.696 896 640 896 671.68 896 768 767.872 768z" fill="#000000" p-id="4329"></path></svg>